<svg xmlns="http://www.w3.org/2000/svg" viewBox="0 0 256 256" role="img" aria-labelledby="title desc">
  <title id="title">MQL5GPULibrary_LSTM project icon</title>
  <desc id="desc">Stylized neural network icon with a GPU chip and LSTM signal wave.</desc>
  <defs>
    <linearGradient id="bg" x1="0" y1="0" x2="1" y2="1">
      <stop offset="0%" stop-color="#0f172a"/>
      <stop offset="100%" stop-color="#1d4ed8"/>
    </linearGradient>
    <linearGradient id="pulse" x1="0" y1="0" x2="1" y2="0">
      <stop offset="0%" stop-color="#22d3ee"/>
      <stop offset="100%" stop-color="#a78bfa"/>
    </linearGradient>
  </defs>

  <rect width="256" height="256" rx="48" fill="url(#bg)"/>

  <rect x="56" y="56" width="144" height="144" rx="22" fill="#0b1220" stroke="#60a5fa" stroke-width="6"/>

  <g fill="#60a5fa">
    <rect x="22" y="92" width="24" height="6" rx="3"/>
    <rect x="22" y="126" width="24" height="6" rx="3"/>
    <rect x="22" y="160" width="24" height="6" rx="3"/>

    <rect x="210" y="92" width="24" height="6" rx="3"/>
    <rect x="210" y="126" width="24" height="6" rx="3"/>
    <rect x="210" y="160" width="24" height="6" rx="3"/>

    <rect x="92" y="22" width="6" height="24" rx="3"/>
    <rect x="126" y="22" width="6" height="24" rx="3"/>
    <rect x="160" y="22" width="6" height="24" rx="3"/>

    <rect x="92" y="210" width="6" height="24" rx="3"/>
    <rect x="126" y="210" width="6" height="24" rx="3"/>
    <rect x="160" y="210" width="6" height="24" rx="3"/>
  </g>

  <polyline points="74,142 96,142 111,108 129,162 145,122 164,122 182,96"
            fill="none" stroke="url(#pulse)" stroke-width="8" stroke-linecap="round" stroke-linejoin="round"/>

  <circle cx="96" cy="142" r="6" fill="#22d3ee"/>
  <circle cx="129" cy="162" r="6" fill="#a78bfa"/>
  <circle cx="182" cy="96" r="6" fill="#22d3ee"/>
</svg>
